<?xml version="1.0" encoding="utf-8"?>
<!-- Generator: Adobe Illustrator 24.0.0, SVG Export Plug-In . SVG Version: 6.00 Build 0)  -->
<svg version="1.1" id="图层_1" xmlns="http://www.w3.org/2000/svg" xmlns:xlink="http://www.w3.org/1999/xlink" x="0px" y="0px"
	 viewBox="0 0 680.3 453.5" style="enable-background:new 0 0 680.3 453.5;" xml:space="preserve">
<style type="text/css">
	.st0{fill:none;}
	.st1{fill:#2CACE1;}
	.st2{fill:#0D0F10;}
</style>
<title>PyCaret logo</title>
<path class="st0" d="M532.8,191.2c-2,1.3-3.7,3-5,5.1l0,0C529.1,194.3,530.8,192.5,532.8,191.2z"/>
<path class="st1" d="M76.4,266.8c0,0,0.2-6.6,0.1-14.5c0-1.9,0.2-6.2,0.2-6.2s3.5-0.1,6.7-0.1c14.4,0.2,28.9,0.5,43.4-0.2
	c12.4-0.6,24.2-3.7,31.4-15.2c1.9-3.1,2.6-5.7-0.6-9c-9.5-9.7-18.7-19.6-27.7-29.7c-2.8-3.1-6-3.9-9.9-3.9c-12.7,0.1-25.4,0-38.1,0
	c-4.9,0-12.8,0.4-12.8,0.4l-14,18c8.3,0,19.5,0,27.7,0c14.5,0,28.9-0.1,43.4,0.2c8,0.2,12.5,4.5,12.5,10.7s-4.6,10.4-12.5,11
	c-2,0.2-4,0-6,0c-21.9,0.1-43.9,0.1-65.8,0.2v38.1"/>
<path class="st2" d="M270.1,266c0,0,7.2-10,13.1-17c-9.5,0-17.2,0-24.9,0c-17,0-27.9-8.2-27.9-21.1c0-12.9,10.6-21.4,27.5-21.7
	c11.5-0.2,22.9,0,34.4-0.1c2.1,0,4.6,1,6.3-1.2c4.1-5.3,8.8-10.1,12.5-17c-22.5,0.5-43.9-1.2-65.3,1c-23.6,2.4-39,19.2-37.9,40.2
	c0.9,17.2,14.3,31.3,33.9,36.2 M465.1,241.1c16.3-4.1,23.5-12.3,23.4-25.8c-0.1-12.5-8.4-21.6-23-25c-3.4-0.9-6.8-1.4-10.3-1.6
	c-16.4-0.3-32.9-0.5-49.4-0.6c-5,0-14.1,0.1-14.1,0.1s-8.7,10.7-13.1,18c21.2,0,45.4,0,66.7,0c4,0,8-0.2,11.8,1.2
	c4.6,1.7,7.7,4.4,7.8,9.6c0.2,5.3-3.2,8-7.5,9.8c-3.2,1.3-6.7,1.5-10.3,1.4c-21.2-0.1-42.4,0.1-63.6-0.1c-4.1,0-5.7,0.9-5.5,5.3
	c0.3,9.5,0.3,19.1,0,28.6c-0.1,3.8,1.1,4.9,5,5c7.7,0.3,17.3,0.1,17.3,0.1s0-6.9,0.2-16.1c0-0.2,0-0.5,0-0.7c-0.6-4,1.3-4.9,5.1-4.9
	c12.5-0.3,17.6-1,26.2-0.2c9.1,0.8,11.1,1.7,19.1,9.6c3.8,3.7,10.9,11.5,10.9,11.5s18.8,0.5,29.3,0.5
	C482.5,257.2,474.7,249,465.1,241.1z M301.8,267c0,0,4.8-6.9,8.3-12.5c9.2-14.7,20.1-28.3,30.8-43c8.9,12.8,17.3,24.9,26,37.5
	c-11.7,0-22.2,0-32.7,0c-2.1,0-4.5-0.9-6.1,1.5c-3.8,5.2-7.6,10.4-12,16.4c19.1,0,36.9,0,54.6,0c2.9,0,4.5-0.3,4.5-3.9
	c-0.2-12,0.1-37.4,0.1-37.4s-11.9-20.5-17.7-29c-0.1-0.2-0.3-0.4-0.4-0.6c-7.4-11.9-23.2-12.2-31.6-0.3
	c-10.6,15.1-21.6,29.9-32.4,44.8c-6.1,8.5-12.2,17-19,26.4 M527.7,206.4c8.2-0.5,16.5,0.1,24.7-0.3c5.1-0.2,6.9,1.1,6.7,6.4
	c-0.4,12.9-0.1,25.9-0.1,38.8c0,6.9-0.1,15.6-0.1,15.6s7.3,0,16.5,0.1c2.5,0,6.2,0,6.2,0s0.1-3.7,0-6.1c-0.3-16.6,0-33.2-0.2-49.8
	c0-3.8,1-5.1,5-4.9c7,0.3,14,0.1,20.9,0.1c2.1,0,4.4,0.7,6.1-1.6c3.9-5.2,8-10.2,13-16.5h-9c-21.7,0-43.4,0.2-65.1-0.1
	c-1.2,0-2.3,0-3.5-0.1c-0.6,0-1.2,0-1.7,0c-0.6,0-11.3,0-11.8,0"/>
<path class="st2" d="M492.2,234.5c14,0.5,27.9,0.1,41.9,0.1c2.5,0,4.9,0.3,6.7-2.1c3-4.1,6.2-8,10.1-13c-19.6,0-37.9,0-56.3,0
	c-2.2,0-3.1,0.9-3.5,2.8c-2.3,10-8.9,16.4-18.3,20.3c11.5,10.8,24.5,24.5,24.5,24.5s10.5-0.2,24.2-0.2h8.2c7.3,0,17-0.3,17-0.3
	s5.5-12.2,7.4-17.5c-20.8,0-41.5-0.3-62.2,0.2 M529.6,188.5h-58.2c8.7,4.1,14.8,8.5,18.2,15.8c0.4,0.8,1.4,1.9,2,1.8h31"/>
<path class="st1" d="M191.5,222.7c-8.1-9.6-19.5-20.5-27.9-29.8c-1.6-1.8-2.8-4.5-5.5-4.6c-8.5-0.2-17-0.1-27.5-0.1
	c12.3,13.1,22.5,25.2,33.9,36c4.2,4,15.3,16.1,15.3,16.1c0.5,9,0.5,18,0,27l25.3-0.5c0,0-1-22.5-0.4-32.2c0-0.7,0.1-1.3,0.1-2
	c0-0.6,0.1-1.2,0.1-1.9c0.6-9.3,2-13.9,5.5-21.7l3-5c5-6.1,7.6-8.2,14.6-12c1-0.5,8.1-3.3,9.1-3.8c-4.5,0.5-15.8,0.9-15.8,0.9
	s-9.6,9.9-12.9,14.1"/>
</svg>
